# xmcd CD database file
#
# Track frame offsets:
#	150
#	1017
#	15783
#	28621
#	43838
#	55710
#	73579
#	85599
#	100767
#	119243
#	130461
#	148035
#
# Disc length: 2123 seconds
#
# Revision: 0
# Processed by: cddbd v1.5.2PL0 Copyright (c) Steve Scherf et al.
# Submitted via: CDex 1.70beta2
#
DISCID=9608490c
DTITLE=Handsome Hank and his Boys - Greatest Hits
DYEAR=2003
DGENRE=Country
TTITLE0=Trailer
TTITLE1=She’s The One
TTITLE2=Paradise City
TTITLE3=Manic Depression
TTITLE4=Daddy Cool
TTITLE5=I’m A Believer
TTITLE6=Blitzkrieg Bop
TTITLE7=Video Killed The Radio Star
TTITLE8=Black Hole Sun
TTITLE9=Da’ Ya’ Think I’m Handsome
TTITLE10=Mongoloid
TTITLE11=Unknown Titel
EXTD=YEAR: 2003
EXTT0=
EXTT1=
EXTT2=
EXTT3=
EXTT4=
EXTT5=
EXTT6=
EXTT7=
EXTT8=
EXTT9=
EXTT10=
EXTT11=
PLAYORDER=
